<!--?xml version="1.0" encoding="utf-8"?-->
<!-- Generator: Adobe Illustrator 18.1.1, SVG Export Plug-In . SVG Version: 6.00 Build 0)  -->

<svg version="1.1" id="_x32_" xmlns="http://www.w3.org/2000/svg" xmlns:xlink="http://www.w3.org/1999/xlink" x="0px" y="0px" viewBox="0 0 512 512" style="width: 512px; height: 512px; opacity: 1;" xml:space="preserve">
<style type="text/css">
	.st0{fill:#4B4B4B;}
</style>
<g>
	<path class="st0" d="M432.875,170.588c-16.492-50.42-43.121-92.443-74.21-122.371c-15.557-14.951-32.258-26.895-49.557-35.209
		c-17.29-8.307-35.258-13-53.113-13.008c-11.886,0-23.855,2.097-35.621,5.943C199.787,12.694,179.786,24.75,161.206,41
		c-27.855,24.387-52.581,58.29-70.516,99.202c-17.903,40.911-28.951,88.864-28.96,141.21c0,39.75,5.911,74.121,16.524,103.395
		c7.952,21.944,18.548,40.992,31.153,57.138c18.895,24.242,42.299,41.879,67.557,53.306c25.274,11.443,52.363,16.75,79.032,16.75
		c23.71,0,47.75-4.194,70.557-13.162c17.088-6.726,33.491-16.146,48.403-28.452c22.378-18.444,41.379-43.379,54.597-74.854
		c13.233-31.476,20.718-69.412,20.718-114.122C450.27,241.532,443.851,204.193,432.875,170.588z M110.19,180.725
		c14.863-45.58,39-83.209,65.79-108.943c13.386-12.879,27.403-22.758,41.064-29.314c13.661-6.573,26.903-9.799,38.952-9.791
		c8.048,0,16.589,1.42,25.46,4.33c15.524,5.065,31.992,14.718,47.815,28.589c23.758,20.758,45.983,50.871,62.096,87.718
		c12.242,27.968,21,59.782,24.508,94.37l-29.436,28.387l-43.306-41.758l-43.315,41.758l-43.306-41.766l-43.306,41.766
		l-43.298-41.766l-43.299,41.766L96.214,246.75C98.657,223.362,103.496,201.242,110.19,180.725z M403.028,373.661
		c-6.871,18.912-15.806,34.839-26.202,48.178c-15.621,20-34.564,34.25-55.274,43.637c-20.702,9.379-43.202,13.846-65.557,13.846
		c-19.863,0-39.855-3.524-58.58-10.903c-14.057-5.524-27.404-13.201-39.581-23.25c-18.258-15.073-33.944-35.412-45.258-62.298
		c-11.29-26.879-18.161-60.372-18.17-101.46c0-3.693,0.081-7.346,0.202-10.991l32,30.87l43.299-41.758l43.298,41.758l43.306-41.758
		l43.306,41.758l43.315-41.758l43.306,41.758l30.992-29.878c0.098,3.315,0.154,6.645,0.154,10
		C417.585,317.927,412.157,348.467,403.028,373.661z" style="fill: rgb(75, 75, 75);"></path>
</g>
</svg>
